<svg xmlns="http://www.w3.org/2000/svg" width="578" height="578" viewBox="0 0 578 578">
<g>
<path d="M 418.50 562.30 C403.08,560.26 385.97,548.85 379.78,536.49 C373.30,523.57 371.69,508.98 375.38,496.62 C383.35,469.89 410.57,454.86 438.91,461.54 C464.42,467.55 481.19,492.64 477.16,518.75 C472.81,546.93 447.01,566.08 418.50,562.30 ZM 435.59 540.17 C442.16,537.90 446.06,534.71 449.81,528.50 C459.94,511.76 452.94,488.26 436.13,482.53 C430.72,480.68 419.85,480.61 414.90,482.37 C408.95,484.50 403.23,489.86 399.99,496.33 C397.45,501.42 397.00,503.47 397.00,509.98 C397.00,521.35 399.11,527.24 405.45,533.58 C413.52,541.65 424.43,544.03 435.59,540.17 ZM 510.58 561.93 C501.97,560.94 491.12,555.79 485.53,550.04 L 481.56 545.96 L 488.66 538.86 L 495.76 531.76 L 501.19 535.86 C510.27,542.71 520.57,544.88 528.45,541.58 C533.53,539.46 535.47,535.96 534.02,531.55 C532.52,527.03 529.33,524.82 517.84,520.39 C494.57,511.40 488.78,505.21 488.78,489.34 C488.78,472.32 499.98,461.78 519.70,460.27 C532.30,459.30 544.98,463.24 554.00,470.91 L 557.50,473.89 L 551.50,480.02 C543.07,488.62 542.90,488.68 537.58,484.61 C527.05,476.58 511.00,478.50 511.00,487.80 C511.00,491.73 515.89,495.42 526.50,499.48 C541.39,505.19 545.26,507.38 550.26,512.94 C555.67,518.97 557.48,525.04 556.78,534.86 C555.98,545.99 550.63,553.51 540.06,558.39 C537.06,559.77 532.11,561.17 529.06,561.49 C526.00,561.82 522.15,562.23 520.50,562.41 C518.85,562.59 514.38,562.37 510.58,561.93 ZM 20.00 511.71 L 20.00 462.27 L 29.75 461.83 C35.11,461.59 47.38,461.65 57.00,461.95 C73.84,462.49 74.68,462.62 79.23,465.28 C85.55,468.99 89.66,473.57 91.49,478.93 C94.65,488.20 92.93,496.95 86.65,503.51 L 82.42,507.92 L 86.82,511.61 C93.00,516.77 95.98,523.57 95.99,532.55 C96.01,544.61 90.82,552.34 79.00,557.91 C73.58,560.46 73.13,560.50 46.75,560.82 L 20.00,561.15 L 20.00,511.71 ZM 68.39 540.91 C75.94,534.97 75.60,524.78 67.70,519.96 C65.05,518.34 62.65,518.01 53.75,518.00 L 43.00,518.00 L 43.00,530.50 L 43.00,543.00 L 54.37,543.00 C64.38,543.00 66.05,542.75 68.39,540.91 ZM 65.72 498.65 C69.49,496.70 71.06,492.32 69.88,487.03 C68.58,481.15 63.50,479.01 50.82,479.01 L 43.14,479.00 L 42.82,488.39 C42.35,502.31 41.56,501.34 52.85,500.79 C59.11,500.48 63.63,499.73 65.72,498.65 ZM 110.00 511.59 L 110.00 462.15 L 118.75 461.82 C123.56,461.65 139.54,461.66 154.25,461.85 L 181.00,462.19 L 181.00,471.60 L 181.00,481.00 L 157.00,481.00 L 133.00,481.00 L 133.00,491.00 L 133.00,501.00 L 155.04,501.00 L 177.08,501.00 L 176.79,510.25 L 176.50,519.50 L 154.82,519.77 L 133.15,520.04 L 132.82,528.27 C132.27,542.46 129.36,540.92 157.32,541.23 L 181.50,541.50 L 181.50,551.00 L 181.50,560.50 L 145.75,560.76 L 110.00,561.03 L 110.00,511.59 ZM 196.00 511.50 L 196.00 462.00 L 204.25 461.84 C208.79,461.75 219.93,461.80 229.00,461.95 C247.50,462.26 251.73,463.20 259.20,468.66 C267.54,474.76 271.94,488.07 269.11,498.61 C266.74,507.41 258.76,515.49 249.79,518.18 C247.39,518.90 246.10,519.82 246.40,520.60 C246.66,521.29 253.43,530.39 261.44,540.82 C269.45,551.25 276.00,560.06 276.00,560.39 C276.00,560.73 270.04,560.98 262.75,560.97 L 249.50,560.93 L 235.50,541.40 C227.80,530.66 220.94,521.40 220.25,520.81 C219.26,519.97 219.00,523.98 219.00,540.38 L 219.00,561.00 L 207.50,561.00 L 196.00,561.00 L 196.00,511.50 ZM 243.60 499.60 C246.39,496.81 247.00,495.44 247.00,492.00 C247.00,482.72 241.42,479.00 227.48,479.00 L 219.00,479.00 L 219.00,491.00 L 219.00,503.00 L 229.60,503.00 L 240.20,503.00 L 243.60,499.60 ZM 294.69 512.28 C284.38,485.45 275.96,463.16 275.98,462.75 C275.99,462.34 281.33,462.00 287.84,462.00 L 299.67,462.00 L 310.96,493.25 C317.17,510.44 322.55,525.06 322.91,525.73 C323.27,526.41 327.57,516.06 332.46,502.73 C337.36,489.41 342.73,474.79 344.40,470.25 L 347.43,462.00 L 359.21,462.00 C365.70,462.00 370.99,462.34 370.99,462.75 C370.98,463.16 362.46,485.33 352.06,512.00 L 333.14,560.50 L 323.28,560.78 L 313.42,561.07 L 294.69,512.28 ZM 264.53 426.50 C252.05,413.85 234.89,396.49 226.39,387.93 L 210.94,372.37 L 219.95,368.68 C224.90,366.66 230.06,365.00 231.42,365.00 C234.27,365.00 250.54,374.89 259.99,382.37 C263.56,385.19 270.96,391.66 276.45,396.75 C281.93,401.84 286.77,406.00 287.21,406.00 C288.13,406.00 305.00,388.91 305.00,387.97 C305.00,387.25 300.13,385.02 284.44,378.54 C257.79,367.54 232.23,347.35 213.17,322.24 L 206.90,313.98 L 211.33,308.24 C213.76,305.08 216.65,301.70 217.74,300.72 C219.67,298.99 219.82,299.03 222.62,302.29 C224.20,304.14 228.38,309.35 231.90,313.86 C245.48,331.29 268.14,350.21 286.50,359.45 C304.99,368.75 318.84,371.94 344.75,372.88 L 362.00,373.50 L 324.61,411.50 L 287.22,449.50 L 264.53,426.50 ZM 128.00 387.87 C128.00,386.27 146.33,350.47 154.04,337.00 C165.08,317.73 182.44,292.09 196.04,275.00 C209.21,258.43 248.82,217.68 252.64,216.76 C256.55,215.82 257.51,217.33 262.06,231.51 C266.30,244.75 270.86,254.50 277.16,263.76 C280.05,268.02 282.49,271.63 282.58,271.79 C283.09,272.68 296.59,263.64 308.78,254.26 C357.25,216.96 403.29,162.88 438.84,101.50 C443.30,93.80 448.34,85.25 450.04,82.50 L 453.12,77.50 L 452.58,81.50 C451.86,86.83 443.92,110.79 438.35,124.50 C429.89,145.29 417.13,167.46 401.53,188.50 C377.43,220.99 339.40,257.59 307.54,278.97 C301.74,282.86 297.00,286.44 297.00,286.93 C297.00,288.24 306.65,296.68 313.37,301.25 C326.64,310.27 347.99,318.58 364.40,321.13 C374.07,322.63 387.30,321.78 393.50,319.26 L 398.50,317.24 L 394.78,315.68 C392.74,314.83 383.63,312.23 374.53,309.92 C365.44,307.60 358.01,305.44 358.03,305.10 C358.05,304.77 360.17,302.92 362.75,301.00 C379.06,288.80 394.13,269.28 396.31,257.50 C396.61,255.85 397.20,253.62 397.61,252.55 C398.03,251.48 392.09,256.29 384.43,263.23 C366.38,279.58 344.10,297.85 341.29,298.60 C338.59,299.33 322.50,291.12 322.50,289.02 C322.50,287.64 325.96,284.58 344.56,269.50 C358.30,258.36 390.75,225.89 402.50,211.50 C416.74,194.07 416.98,193.96 419.92,203.47 C423.04,213.59 424.23,225.71 423.85,243.56 C423.66,252.60 423.85,260.00 424.27,260.00 C424.69,260.00 433.69,251.47 444.27,241.05 L 463.50,222.11 L 444.25,202.79 C433.66,192.17 425.00,183.09 425.00,182.62 C425.00,182.15 428.70,175.95 433.21,168.85 L 441.42,155.93 L 474.46,189.01 L 507.50,222.09 L 479.50,249.80 C419.32,309.38 402.15,323.67 383.86,329.47 C362.42,336.27 340.52,334.43 318.10,323.92 C289.96,310.74 268.30,289.39 253.52,260.25 C250.08,253.47 247.22,249.00 246.32,249.00 C245.49,249.00 241.15,252.73 236.66,257.28 C214.48,279.79 181.48,323.89 171.96,343.77 C169.78,348.32 168.00,352.21 168.00,352.42 C168.00,353.36 182.60,348.33 194.22,343.39 L 206.94,337.98 L 210.95,342.33 C216.42,348.26 219.31,352.02 218.80,352.53 C217.23,354.11 168.45,374.54 148.97,381.78 C132.71,387.82 128.00,389.19 128.00,387.87 ZM 122.40 360.00 C124.22,347.42 135.19,317.27 145.06,297.73 C158.20,271.71 169.48,255.40 192.57,229.01 C206.79,212.75 232.18,189.45 246.66,179.38 C251.46,176.04 252.07,175.87 255.27,176.92 C258.80,178.09 267.00,184.46 267.00,186.04 C267.00,186.53 259.91,192.87 251.25,200.12 C223.15,223.67 192.66,255.89 172.85,283.00 C157.17,304.46 147.36,320.02 134.05,344.52 C128.98,353.86 124.14,362.17 123.29,363.00 C121.91,364.35 121.82,364.04 122.40,360.00 ZM 322.00 357.57 C307.28,354.48 293.93,348.52 277.95,337.90 C265.12,329.39 245.60,309.80 236.69,296.50 C233.01,291.00 229.99,286.00 229.99,285.38 C230.00,283.99 241.70,272.50 243.11,272.50 C243.68,272.50 245.50,274.98 247.16,278.00 C256.78,295.52 283.21,321.33 303.29,332.82 C316.44,340.34 343.73,348.01 357.30,348.00 C369.00,347.99 391.60,342.76 401.32,337.83 C408.21,334.33 407.51,336.51 400.18,341.38 C391.68,347.03 377.90,353.18 367.20,356.10 C357.25,358.81 331.84,359.64 322.00,357.57 ZM 99.01 254.51 L 66.53,222.02 L 73.02,215.40 C89.82,198.25 133.47,156.96 142.46,149.72 C152.77,141.43 162.47,136.17 175.50,131.83 C182.07,129.64 184.00,129.50 207.00,129.50 C231.20,129.50 231.60,129.53 239.50,132.28 C243.90,133.81 252.90,137.74 259.50,141.01 C281.97,152.16 297.76,166.49 315.38,191.75 C318.55,196.29 321.46,200.00 321.86,200.00 C322.70,200.00 341.63,179.98 351.64,168.50 C376.70,139.76 403.93,100.66 403.99,93.33 C404.00,91.76 393.71,95.00 374.00,102.78 C353.04,111.05 354.30,110.88 348.42,106.23 C338.94,98.72 338.92,97.59 348.14,93.84 C376.91,82.17 432.89,59.87 438.75,57.75 C445.73,55.22 446.00,55.19 446.00,57.09 C446.00,59.57 441.04,69.47 430.41,88.18 C414.53,116.17 396.04,143.57 376.62,167.92 C353.60,196.78 316.68,234.46 315.32,230.48 C315.13,229.94 312.06,224.10 308.49,217.50 C288.60,180.71 258.18,154.77 223.58,145.06 C217.57,143.38 212.15,142.00 211.54,142.00 C209.92,142.00 193.96,157.90 188.61,164.86 C183.40,171.63 176.00,186.22 176.00,189.72 C176.00,191.84 176.55,191.59 182.32,186.77 C185.80,183.87 193.73,176.91 199.93,171.29 C213.18,159.31 215.85,158.07 223.31,160.49 C230.77,162.92 238.00,166.12 238.00,167.00 C238.00,167.42 234.74,170.23 230.75,173.24 C213.50,186.28 180.50,218.94 163.52,239.75 C160.26,243.74 157.26,247.00 156.84,247.00 C155.90,247.00 152.57,236.37 150.97,228.27 C150.21,224.41 149.91,215.32 150.15,203.11 C150.35,192.60 150.16,184.00 149.74,184.00 C149.31,184.00 140.31,192.50 129.74,202.90 L 110.51,221.79 L 126.02,237.65 C134.55,246.37 142.79,255.15 144.33,257.18 C147.08,260.79 147.10,260.92 145.46,264.18 C142.57,269.95 132.52,286.96 131.99,286.98 C131.72,286.99 116.87,272.38 99.01,254.51 ZM 319.58 173.55 C314.60,166.33 295.74,148.16 284.50,139.78 C273.57,131.62 259.07,124.24 245.00,119.67 C229.24,114.56 222.34,113.50 205.00,113.53 C188.90,113.56 183.43,114.36 169.69,118.67 C165.39,120.02 161.34,120.92 160.69,120.67 C159.09,120.07 180.64,109.78 190.31,106.53 C203.57,102.08 219.62,100.96 240.14,103.06 C265.94,105.69 296.63,121.72 319.49,144.50 C329.59,154.57 335.00,162.05 335.00,165.96 C335.00,167.78 333.42,170.13 329.72,173.78 C326.81,176.65 324.19,179.00 323.88,179.00 C323.58,179.00 321.64,176.55 319.58,173.55 ZM 330.50 137.56 C313.31,119.93 302.38,111.46 286.00,103.09 C266.47,93.11 252.43,89.50 227.22,87.98 C218.11,87.43 210.50,86.84 210.32,86.66 C209.49,85.83 286.34,11.00 288.02,11.00 C289.20,11.00 351.46,73.79 351.79,75.31 C352.15,76.97 333.59,85.98 328.33,86.68 C324.95,87.14 323.83,86.68 318.89,82.84 C315.80,80.45 307.53,72.98 300.51,66.24 C293.49,59.51 287.31,54.00 286.78,54.00 C285.44,54.00 266.94,72.31 267.27,73.31 C267.42,73.76 273.44,76.74 280.65,79.92 C312.27,93.88 330.76,106.67 351.30,128.79 C355.54,133.35 359.00,137.43 359.00,137.86 C359.00,138.92 347.07,153.01 346.20,152.98 C345.82,152.96 338.75,146.03 330.50,137.56 Z" fill="rgba(255,255,255,1)"/>
</g>
</svg>